<?xml version="1.0"?>
<svg width="349" height="320" xmlns="http://www.w3.org/2000/svg" xmlns:svg="http://www.w3.org/2000/svg">
 <g>
  <title>Layer 1</title>
  <path id="svg_1" fill="#ffffff" d="m0,0l0,320l349,0l0,-320l-349,0z"/>
  <path id="svg_2" fill="#000000" d="m-30,-17l0,355.999996l416.999999,0l0,-355.999996l-416.999999,0z"/>
  <path id="svg_3" fill="#ffffff" d="m167,39l0,6l6,0l0,-6l-6,0m7,0l0,6l6,0l0,-6l-6,0m7,0l0,6l6,0l0,-6l-6,0m7,0l0,6l6,0l0,-6l-6,0m-21,7l0,6l6,0l0,-6l-6,0m7,0l0,6l6,0l0,-6l-6,0m7,0l0,6l6,0l0,-6l-6,0m7,0l0,6l6,0l0,-6l-6,0m-21,7l0,6l6,0l0,-6l-6,0m7,0l0,6l6,0l0,-6l-6,0m7,0l0,6l6,0l0,-6l-6,0m7,0l0,6l6,0l0,-6l-6,0m-21,7l0,6l6,0l0,-6l-6,0m7,0l0,6l6,0l0,-6l-6,0m7,0l0,6l6,0l0,-6l-6,0m7,0l0,6l6,0l0,-6l-6,0m-77,7l0,6l6,0l0,-6l-6,0m7,0l0,6l6,0l0,-6l-6,0m7,0l0,6l6,0l0,-6l-6,0m7,0l0,6l6,0l0,-6l-6,0m7,0l0,6l6,0l0,-6l-6,0m28,0l0,6l6,0l0,-6l-6,0m7,0l0,6l6,0l0,-6l-6,0m7,0l0,6l6,0l0,-6l-6,0m7,0l0,6l6,0l0,-6l-6,0m28,0l0,6l6,0l0,-6l-6,0m7,0l0,6l6,0l0,-6l-6,0m7,0l0,6l6,0l0,-6l-6,0m7,0l0,6l6,0l0,-6l-6,0m7,0l0,6l6,0l0,-6l-6,0m-147,7l0,6l6,0l0,-6l-6,0m7,0l0,6l6,0l0,-6l-6,0m7,0l0,6l6,0l0,-6l-6,0m7,0l0,6l6,0l0,-6l-6,0m7,0l0,6l6,0l0,-6l-6,0m7,0l0,6l6,0l0,-6l-6,0m7,0l0,6l6,0l0,-6l-6,0m7,0l0,6l6,0l0,-6l-6,0m21,0l0,6l6,0l0,-6l-6,0m7,0l0,6l6,0l0,-6l-6,0m7,0l0,6l6,0l0,-6l-6,0m7,0l0,6l6,0l0,-6l-6,0m21,0l0,6l6,0l0,-6l-6,0m7,0l0,6l6,0l0,-6l-6,0m7,0l0,6l6,0l0,-6l-6,0m7,0l0,6l6,0l0,-6l-6,0m7,0l0,6l6,0l0,-6l-6,0m7,0l0,6l6,0l0,-6l-6,0m7,0l0,6l6,0l0,-6l-6,0m7,0l0,6l6,0l0,-6l-6,0m-168,7l0,6l6,0l0,-6l-6,0m7,0l0,6l6,0l0,-6l-6,0m7,0l0,6l6,0l0,-6l-6,0m7,0l0,6l6,0l0,-6l-6,0m7,0l0,6l6,0l0,-6l-6,0m7,0l0,6l6,0l0,-6l-6,0m7,0l0,6l6,0l0,-6l-6,0m7,0l0,6l6,0l0,-6l-6,0m7,0l0,6l6,0l0,-6l-6,0m21,0l0,6l6,0l0,-6l-6,0m7,0l0,6l6,0l0,-6l-6,0m7,0l0,6l6,0l0,-6l-6,0m7,0l0,6l6,0l0,-6l-6,0m21,0l0,6l6,0l0,-6l-6,0m7,0l0,6l6,0l0,-6l-6,0m7,0l0,6l6,0l0,-6l-6,0m7,0l0,6l6,0l0,-6l-6,0m7,0l0,6l6,0l0,-6l-6,0m7,0l0,6l6,0l0,-6l-6,0m7,0l0,6l6,0l0,-6l-6,0m7,0l0,6l6,0l0,-6l-6,0m7,0l0,6l6,0l0,-6l-6,0m-182,7l0,6l6,0l0,-6l-6,0m7,0l0,6l6,0l0,-6l-6,0m7,0l0,6l6,0l0,-6l-6,0m7,0l0,6l6,0l0,-6l-6,0m7,0l0,6l6,0l0,-6l-6,0m7,0l0,6l6,0l0,-6l-6,0m7,0l0,6l6,0l0,-6l-6,0m7,0l0,6l6,0l0,-6l-6,0m7,0l0,6l6,0l0,-6l-6,0m7,0l0,6l6,0l0,-6l-6,0m7,0l0,6l6,0l0,-6l-6,0m14,0l0,6l6,0l0,-6l-6,0m7,0l0,6l6,0l0,-6l-6,0m7,0l0,6l6,0l0,-6l-6,0m7,0l0,6l6,0l0,-6l-6,0m14,0l0,6l6,0l0,-6l-6,0m7,0l0,6l6,0l0,-6l-6,0m7,0l0,6l6,0l0,-6l-6,0m7,0l0,6l6,0l0,-6l-6,0m7,0l0,6l6,0l0,-6l-6,0m7,0l0,6l6,0l0,-6l-6,0m7,0l0,6l6,0l0,-6l-6,0m7,0l0,6l6,0l0,-6l-6,0m7,0l0,6l6,0l0,-6l-6,0m7,0l0,6l6,0l0,-6l-6,0m7,0l0,6l6,0l0,-6l-6,0m-196,7l0,6l6,0l0,-6l-6,0m7,0l0,6l6,0l0,-6l-6,0m7,0l0,6l6,0l0,-6l-6,0m7,0l0,6l6,0l0,-6l-6,0m7,0l0,6l6,0l0,-6l-6,0m7,0l0,6l6,0l0,-6l-6,0m7,0l0,6l6,0l0,-6l-6,0m7,0l0,6l6,0l0,-6l-6,0m7,0l0,6l6,0l0,-6l-6,0m7,0l0,6l6,0l0,-6l-6,0m7,0l0,6l6,0l0,-6l-6,0m7,0l0,6l6,0l0,-6l-6,0m14,0l0,6l6,0l0,-6l-6,0m7,0l0,6l6,0l0,-6l-6,0m7,0l0,6l6,0l0,-6l-6,0m7,0l0,6l6,0l0,-6l-6,0m14,0l0,6l6,0l0,-6l-6,0m7,0l0,6l6,0l0,-6l-6,0m7,0l0,6l6,0l0,-6l-6,0m7,0l0,6l6,0l0,-6l-6,0m7,0l0,6l6,0l0,-6l-6,0m7,0l0,6l6,0l0,-6l-6,0m7,0l0,6l6,0l0,-6l-6,0m7,0l0,6l6,0l0,-6l-6,0m7,0l0,6l6,0l0,-6l-6,0m7,0l0,6l6,0l0,-6l-6,0m7,0l0,6l6,0l0,-6l-6,0m7,0l0,6l6,0l0,-6l-6,0m-210,7l0,6l6,0l0,-6l-6,0m7,0l0,6l6,0l0,-6l-6,0m7,0l0,6l6,0l0,-6l-6,0m7,0l0,6l6,0l0,-6l-6,0m7,0l0,6l6,0l0,-6l-6,0m7,0l0,6l6,0l0,-6l-6,0m7,0l0,6l6,0l0,-6l-6,0m7,0l0,6l6,0l0,-6l-6,0m7,0l0,6l6,0l0,-6l-6,0m7,0l0,6l6,0l0,-6l-6,0m7,0l0,6l6,0l0,-6l-6,0m7,0l0,6l6,0l0,-6l-6,0m7,0l0,6l6,0l0,-6l-6,0m14,0l0,6l6,0l0,-6l-6,0m7,0l0,6l6,0l0,-6l-6,0m7,0l0,6l6,0l0,-6l-6,0m7,0l0,6l6,0l0,-6l-6,0m14,0l0,6l6,0l0,-6l-6,0m7,0l0,6l6,0l0,-6l-6,0m7,0l0,6l6,0l0,-6l-6,0m7,0l0,6l6,0l0,-6l-6,0m7,0l0,6l6,0l0,-6l-6,0m7,0l0,6l6,0l0,-6l-6,0m7,0l0,6l6,0l0,-6l-6,0m7,0l0,6l6,0l0,-6l-6,0m7,0l0,6l6,0l0,-6l-6,0m7,0l0,6l6,0l0,-6l-6,0m7,0l0,6l6,0l0,-6l-6,0m7,0l0,6l6,0l0,-6l-6,0m7,0l0,6l6,0l0,-6l-6,0m-217,7l0,6l6,0l0,-6l-6,0m7,0l0,6l6,0l0,-6l-6,0m7,0l0,6l6,0l0,-6l-6,0m7,0l0,6l6,0l0,-6l-6,0m7,0l0,6l6,0l0,-6l-6,0m7,0l0,6l6,0l0,-6l-6,0m7,0l0,6l6,0l0,-6l-6,0m7,0l0,6l6,0l0,-6l-6,0m7,0l0,6l6,0l0,-6l-6,0m7,0l0,6l6,0l0,-6l-6,0m7,0l0,6l6,0l0,-6l-6,0m7,0l0,6l6,0l0,-6l-6,0m7,0l0,6l6,0l0,-6l-6,0m14,0l0,6l6,0l0,-6l-6,0m7,0l0,6l6,0l0,-6l-6,0m7,0l0,6l6,0l0,-6l-6,0m7,0l0,6l6,0l0,-6l-6,0m14,0l0,6l6,0l0,-6l-6,0m7,0l0,6l6,0l0,-6l-6,0m7,0l0,6l6,0l0,-6l-6,0m7,0l0,6l6,0l0,-6l-6,0m7,0l0,6l6,0l0,-6l-6,0m7,0l0,6l6,0l0,-6l-6,0m7,0l0,6l6,0l0,-6l-6,0m7,0l0,6l6,0l0,-6l-6,0m7,0l0,6l6,0l0,-6l-6,0m7,0l0,6l6,0l0,-6l-6,0m7,0l0,6l6,0l0,-6l-6,0m7,0l0,6l6,0l0,-6l-6,0m7,0l0,6l6,0l0,-6l-6,0m-224,7l0,6l6,0l0,-6l-6,0m7,0l0,6l6,0l0,-6l-6,0m7,0l0,6l6,0l0,-6l-6,0m7,0l0,6l6,0l0,-6l-6,0m7,0l0,6l6,0l0,-6l-6,0m7,0l0,6l6,0l0,-6l-6,0m7,0l0,6l6,0l0,-6l-6,0m7,0l0,6l6,0l0,-6l-6,0m7,0l0,6l6,0l0,-6l-6,0m7,0l0,6l6,0l0,-6l-6,0m7,0l0,6l6,0l0,-6l-6,0m7,0l0,6l6,0l0,-6l-6,0m7,0l0,6l6,0l0,-6l-6,0m7,0l0,6l6,0l0,-6l-6,0m7,0l0,6l6,0l0,-6l-6,0m7,0l0,6l6,0l0,-6l-6,0m7,0l0,6l6,0l0,-6l-6,0m7,0l0,6l6,0l0,-6l-6,0m7,0l0,6l6,0l0,-6l-6,0m7,0l0,6l6,0l0,-6l-6,0m7,0l0,6l6,0l0,-6l-6,0m7,0l0,6l6,0l0,-6l-6,0m7,0l0,6l6,0l0,-6l-6,0m7,0l0,6l6,0l0,-6l-6,0m7,0l0,6l6,0l0,-6l-6,0m7,0l0,6l6,0l0,-6l-6,0m7,0l0,6l6,0l0,-6l-6,0m7,0l0,6l6,0l0,-6l-6,0m7,0l0,6l6,0l0,-6l-6,0m7,0l0,6l6,0l0,-6l-6,0m7,0l0,6l6,0l0,-6l-6,0m7,0l0,6l6,0l0,-6l-6,0m7,0l0,6l6,0l0,-6l-6,0m7,0l0,6l6,0l0,-6l-6,0m-238,7l0,6l6,0l0,-6l-6,0m7,0l0,6l6,0l0,-6l-6,0m7,0l0,6l6,0l0,-6l-6,0m7,0l0,6l6,0l0,-6l-6,0m7,0l0,6l6,0l0,-6l-6,0m7,0l0,6l6,0l0,-6l-6,0m7,0l0,6l6,0l0,-6l-6,0m7,0l0,6l6,0l0,-6l-6,0m7,0l0,6l6,0l0,-6l-6,0m7,0l0,6l6,0l0,-6l-6,0m7,0l0,6l6,0l0,-6l-6,0m7,0l0,6l6,0l0,-6l-6,0m7,0l0,6l6,0l0,-6l-6,0m7,0l0,6l6,0l0,-6l-6,0m7,0l0,6l6,0l0,-6l-6,0m7,0l0,6l6,0l0,-6l-6,0m7,0l0,6l6,0l0,-6l-6,0m7,0l0,6l6,0l0,-6l-6,0m7,0l0,6l6,0l0,-6l-6,0m7,0l0,6l6,0l0,-6l-6,0m7,0l0,6l6,0l0,-6l-6,0m7,0l0,6l6,0l0,-6l-6,0m7,0l0,6l6,0l0,-6l-6,0m7,0l0,6l6,0l0,-6l-6,0m7,0l0,6l6,0l0,-6l-6,0m7,0l0,6l6,0l0,-6l-6,0m7,0l0,6l6,0l0,-6l-6,0m7,0l0,6l6,0l0,-6l-6,0m7,0l0,6l6,0l0,-6l-6,0m7,0l0,6l6,0l0,-6l-6,0m7,0l0,6l6,0l0,-6l-6,0m7,0l0,6l6,0l0,-6l-6,0m7,0l0,6l6,0l0,-6l-6,0m7,0l0,6l6,0l0,-6l-6,0m7,0l0,6l6,0l0,-6l-6,0m7,0l0,6l6,0l0,-6l-6,0m-245,7l0,6l6,0l0,-6l-6,0m7,0l0,6l6,0l0,-6l-6,0m7,0l0,6l6,0l0,-6l-6,0m7,0l0,6l6,0l0,-6l-6,0m7,0l0,6l6,0l0,-6l-6,0m7,0l0,6l6,0l0,-6l-6,0m7,0l0,6l6,0l0,-6l-6,0m7,0l0,6l6,0l0,-6l-6,0m7,0l0,6l6,0l0,-6l-6,0m7,0l0,6l6,0l0,-6l-6,0m7,0l0,6l6,0l0,-6l-6,0m7,0l0,6l6,0l0,-6l-6,0m7,0l0,6l6,0l0,-6l-6,0m7,0l0,6l6,0l0,-6l-6,0m7,0l0,6l6,0l0,-6l-6,0m7,0l0,6l6,0l0,-6l-6,0m7,0l0,6l6,0l0,-6l-6,0m7,0l0,6l6,0l0,-6l-6,0m7,0l0,6l6,0l0,-6l-6,0m21,0l0,6l6,0l0,-6l-6,0m7,0l0,6l6,0l0,-6l-6,0m7,0l0,6l6,0l0,-6l-6,0m7,0l0,6l6,0l0,-6l-6,0m7,0l0,6l6,0l0,-6l-6,0m7,0l0,6l6,0l0,-6l-6,0m7,0l0,6l6,0l0,-6l-6,0m7,0l0,6l6,0l0,-6l-6,0m7,0l0,6l6,0l0,-6l-6,0m7,0l0,6l6,0l0,-6l-6,0m7,0l0,6l6,0l0,-6l-6,0m7,0l0,6l6,0l0,-6l-6,0m7,0l0,6l6,0l0,-6l-6,0m7,0l0,6l6,0l0,-6l-6,0m7,0l0,6l6,0l0,-6l-6,0m-245,7l0,6l6,0l0,-6l-6,0m7,0l0,6l6,0l0,-6l-6,0m7,0l0,6l6,0l0,-6l-6,0m7,0l0,6l6,0l0,-6l-6,0m7,0l0,6l6,0l0,-6l-6,0m7,0l0,6l6,0l0,-6l-6,0m7,0l0,6l6,0l0,-6l-6,0m7,0l0,6l6,0l0,-6l-6,0m7,0l0,6l6,0l0,-6l-6,0m7,0l0,6l6,0l0,-6l-6,0m7,0l0,6l6,0l0,-6l-6,0m7,0l0,6l6,0l0,-6l-6,0m7,0l0,6l6,0l0,-6l-6,0m7,0l0,6l6,0l0,-6l-6,0m7,0l0,6l6,0l0,-6l-6,0m49,0l0,6l6,0l0,-6l-6,0m7,0l0,6l6,0l0,-6l-6,0m7,0l0,6l6,0l0,-6l-6,0m7,0l0,6l6,0l0,-6l-6,0m7,0l0,6l6,0l0,-6l-6,0m7,0l0,6l6,0l0,-6l-6,0m7,0l0,6l6,0l0,-6l-6,0m7,0l0,6l6,0l0,-6l-6,0m7,0l0,6l6,0l0,-6l-6,0m7,0l0,6l6,0l0,-6l-6,0m7,0l0,6l6,0l0,-6l-6,0m7,0l0,6l6,0l0,-6l-6,0m7,0l0,6l6,0l0,-6l-6,0m7,0l0,6l6,0l0,-6l-6,0m7,0l0,6l6,0l0,-6l-6,0m7,0l0,6l6,0l0,-6l-6,0m-259,7l0,6l6,0l0,-6l-6,0m7,0l0,6l6,0l0,-6l-6,0m7,0l0,6l6,0l0,-6l-6,0m7,0l0,6l6,0l0,-6l-6,0m7,0l0,6l6,0l0,-6l-6,0m7,0l0,6l6,0l0,-6l-6,0m7,0l0,6l6,0l0,-6l-6,0m7,0l0,6l6,0l0,-6l-6,0m7,0l0,6l6,0l0,-6l-6,0m7,0l0,6l6,0l0,-6l-6,0m7,0l0,6l6,0l0,-6l-6,0m7,0l0,6l6,0l0,-6l-6,0m7,0l0,6l6,0l0,-6l-6,0m7,0l0,6l6,0l0,-6l-6,0m7,0l0,6l6,0l0,-6l-6,0m7,0l0,6l6,0l0,-6l-6,0m56,0l0,6l6,0l0,-6l-6,0m7,0l0,6l6,0l0,-6l-6,0m7,0l0,6l6,0l0,-6l-6,0m7,0l0,6l6,0l0,-6l-6,0m7,0l0,6l6,0l0,-6l-6,0m7,0l0,6l6,0l0,-6l-6,0m7,0l0,6l6,0l0,-6l-6,0m7,0l0,6l6,0l0,-6l-6,0m7,0l0,6l6,0l0,-6l-6,0m7,0l0,6l6,0l0,-6l-6,0m7,0l0,6l6,0l0,-6l-6,0m7,0l0,6l6,0l0,-6l-6,0m7,0l0,6l6,0l0,-6l-6,0m7,0l0,6l6,0l0,-6l-6,0m7,0l0,6l6,0l0,-6l-6,0m-259,7l0,6l6,0l0,-6l-6,0m7,0l0,6l6,0l0,-6l-6,0m7,0l0,6l6,0l0,-6l-6,0m7,0l0,6l6,0l0,-6l-6,0m7,0l0,6l6,0l0,-6l-6,0m7,0l0,6l6,0l0,-6l-6,0m7,0l0,6l6,0l0,-6l-6,0m7,0l0,6l6,0l0,-6l-6,0m7,0l0,6l6,0l0,-6l-6,0m7,0l0,6l6,0l0,-6l-6,0m7,0l0,6l6,0l0,-6l-6,0m7,0l0,6l6,0l0,-6l-6,0m7,0l0,6l6,0l0,-6l-6,0m7,0l0,6l6,0l0,-6l-6,0m7,0l0,6l6,0l0,-6l-6,0m7,0l0,6l6,0l0,-6l-6,0m49,0l0,6l6,0l0,-6l-6,0m7,0l0,6l6,0l0,-6l-6,0m7,0l0,6l6,0l0,-6l-6,0m7,0l0,6l6,0l0,-6l-6,0m7,0l0,6l6,0l0,-6l-6,0m7,0l0,6l6,0l0,-6l-6,0m7,0l0,6l6,0l0,-6l-6,0m7,0l0,6l6,0l0,-6l-6,0m7,0l0,6l6,0l0,-6l-6,0m7,0l0,6l6,0l0,-6l-6,0m7,0l0,6l6,0l0,-6l-6,0m7,0l0,6l6,0l0,-6l-6,0m7,0l0,6l6,0l0,-6l-6,0m7,0l0,6l6,0l0,-6l-6,0m7,0l0,6l6,0l0,-6l-6,0m7,0l0,6l6,0l0,-6l-6,0m-266,7l0,6l6,0l0,-6l-6,0m7,0l0,6l6,0l0,-6l-6,0m7,0l0,6l6,0l0,-6l-6,0m7,0l0,6l6,0l0,-6l-6,0m7,0l0,6l6,0l0,-6l-6,0m7,0l0,6l6,0l0,-6l-6,0m7,0l0,6l6,0l0,-6l-6,0m7,0l0,6l6,0l0,-6l-6,0m7,0l0,6l6,0l0,-6l-6,0m7,0l0,6l6,0l0,-6l-6,0m7,0l0,6l6,0l0,-6l-6,0m7,0l0,6l6,0l0,-6l-6,0m7,0l0,6l6,0l0,-6l-6,0m7,0l0,6l6,0l0,-6l-6,0m7,0l0,6l6,0l0,-6l-6,0m7,0l0,6l6,0l0,-6l-6,0m7,0l0,6l6,0l0,-6l-6,0m49,0l0,6l6,0l0,-6l-6,0m7,0l0,6l6,0l0,-6l-6,0m7,0l0,6l6,0l0,-6l-6,0m7,0l0,6l6,0l0,-6l-6,0m7,0l0,6l6,0l0,-6l-6,0m7,0l0,6l6,0l0,-6l-6,0m7,0l0,6l6,0l0,-6l-6,0m7,0l0,6l6,0l0,-6l-6,0m7,0l0,6l6,0l0,-6l-6,0m7,0l0,6l6,0l0,-6l-6,0m7,0l0,6l6,0l0,-6l-6,0m7,0l0,6l6,0l0,-6l-6,0m7,0l0,6l6,0l0,-6l-6,0m7,0l0,6l6,0l0,-6l-6,0m7,0l0,6l6,0l0,-6l-6,0m7,0l0,6l6,0l0,-6l-6,0m-266,7l0,6l6,0l0,-6l-6,0m7,0l0,6l6,0l0,-6l-6,0m7,0l0,6l6,0l0,-6l-6,0m7,0l0,6l6,0l0,-6l-6,0m7,0l0,6l6,0l0,-6l-6,0m7,0l0,6l6,0l0,-6l-6,0m7,0l0,6l6,0l0,-6l-6,0m7,0l0,6l6,0l0,-6l-6,0m7,0l0,6l6,0l0,-6l-6,0m7,0l0,6l6,0l0,-6l-6,0m7,0l0,6l6,0l0,-6l-6,0m7,0l0,6l6,0l0,-6l-6,0m7,0l0,6l6,0l0,-6l-6,0m7,0l0,6l6,0l0,-6l-6,0m7,0l0,6l6,0l0,-6l-6,0m7,0l0,6l6,0l0,-6l-6,0m63,0l0,6l6,0l0,-6l-6,0m7,0l0,6l6,0l0,-6l-6,0m7,0l0,6l6,0l0,-6l-6,0m7,0l0,6l6,0l0,-6l-6,0m7,0l0,6l6,0l0,-6l-6,0m7,0l0,6l6,0l0,-6l-6,0m7,0l0,6l6,0l0,-6l-6,0m7,0l0,6l6,0l0,-6l-6,0m7,0l0,6l6,0l0,-6l-6,0m7,0l0,6l6,0l0,-6l-6,0m7,0l0,6l6,0l0,-6l-6,0m7,0l0,6l6,0l0,-6l-6,0m7,0l0,6l6,0l0,-6l-6,0m7,0l0,6l6,0l0,-6l-6,0m7,0l0,6l6,0l0,-6l-6,0m7,0l0,6l6,0l0,-6l-6,0m-273,7l0,6l6,0l0,-6l-6,0m7,0l0,6l6,0l0,-6l-6,0m7,0l0,6l6,0l0,-6l-6,0m7,0l0,6l6,0l0,-6l-6,0m7,0l0,6l6,0l0,-6l-6,0m7,0l0,6l6,0l0,-6l-6,0m7,0l0,6l6,0l0,-6l-6,0m7,0l0,6l6,0l0,-6l-6,0m7,0l0,6l6,0l0,-6l-6,0m7,0l0,6l6,0l0,-6l-6,0m7,0l0,6l6,0l0,-6l-6,0m7,0l0,6l6,0l0,-6l-6,0m7,0l0,6l6,0l0,-6l-6,0m7,0l0,6l6,0l0,-6l-6,0m7,0l0,6l6,0l0,-6l-6,0m7,0l0,6l6,0l0,-6l-6,0m7,0l0,6l6,0l0,-6l-6,0m56,0l0,6l6,0l0,-6l-6,0m7,0l0,6l6,0l0,-6l-6,0m7,0l0,6l6,0l0,-6l-6,0m7,0l0,6l6,0l0,-6l-6,0m7,0l0,6l6,0l0,-6l-6,0m7,0l0,6l6,0l0,-6l-6,0m7,0l0,6l6,0l0,-6l-6,0m7,0l0,6l6,0l0,-6l-6,0m7,0l0,6l6,0l0,-6l-6,0m7,0l0,6l6,0l0,-6l-6,0m7,0l0,6l6,0l0,-6l-6,0m7,0l0,6l6,0l0,-6l-6,0m7,0l0,6l6,0l0,-6l-6,0m7,0l0,6l6,0l0,-6l-6,0m7,0l0,6l6,0l0,-6l-6,0m7,0l0,6l6,0l0,-6l-6,0m-273,7l0,6l6,0l0,-6l-6,0m7,0l0,6l6,0l0,-6l-6,0m7,0l0,6l6,0l0,-6l-6,0m7,0l0,6l6,0l0,-6l-6,0m7,0l0,6l6,0l0,-6l-6,0m7,0l0,6l6,0l0,-6l-6,0m7,0l0,6l6,0l0,-6l-6,0m7,0l0,6l6,0l0,-6l-6,0m7,0l0,6l6,0l0,-6l-6,0m7,0l0,6l6,0l0,-6l-6,0m7,0l0,6l6,0l0,-6l-6,0m7,0l0,6l6,0l0,-6l-6,0m7,0l0,6l6,0l0,-6l-6,0m7,0l0,6l6,0l0,-6l-6,0m7,0l0,6l6,0l0,-6l-6,0m7,0l0,6l6,0l0,-6l-6,0m7,0l0,6l6,0l0,-6l-6,0m63,0l0,6l6,0l0,-6l-6,0m7,0l0,6l6,0l0,-6l-6,0m7,0l0,6l6,0l0,-6l-6,0m7,0l0,6l6,0l0,-6l-6,0m7,0l0,6l6,0l0,-6l-6,0m7,0l0,6l6,0l0,-6l-6,0m7,0l0,6l6,0l0,-6l-6,0m7,0l0,6l6,0l0,-6l-6,0m7,0l0,6l6,0l0,-6l-6,0m7,0l0,6l6,0l0,-6l-6,0m7,0l0,6l6,0l0,-6l-6,0m7,0l0,6l6,0l0,-6l-6,0m7,0l0,6l6,0l0,-6l-6,0m7,0l0,6l6,0l0,-6l-6,0m7,0l0,6l6,0l0,-6l-6,0m-273,7l0,6l6,0l0,-6l-6,0m7,0l0,6l6,0l0,-6l-6,0m7,0l0,6l6,0l0,-6l-6,0m7,0l0,6l6,0l0,-6l-6,0m7,0l0,6l6,0l0,-6l-6,0m7,0l0,6l6,0l0,-6l-6,0m7,0l0,6l6,0l0,-6l-6,0m7,0l0,6l6,0l0,-6l-6,0m7,0l0,6l6,0l0,-6l-6,0m7,0l0,6l6,0l0,-6l-6,0m7,0l0,6l6,0l0,-6l-6,0m7,0l0,6l6,0l0,-6l-6,0m7,0l0,6l6,0l0,-6l-6,0m7,0l0,6l6,0l0,-6l-6,0m7,0l0,6l6,0l0,-6l-6,0m7,0l0,6l6,0l0,-6l-6,0m7,0l0,6l6,0l0,-6l-6,0m56,0l0,6l6,0l0,-6l-6,0m7,0l0,6l6,0l0,-6l-6,0m7,0l0,6l6,0l0,-6l-6,0m7,0l0,6l6,0l0,-6l-6,0m7,0l0,6l6,0l0,-6l-6,0m7,0l0,6l6,0l0,-6l-6,0m7,0l0,6l6,0l0,-6l-6,0m7,0l0,6l6,0l0,-6l-6,0m7,0l0,6l6,0l0,-6l-6,0m7,0l0,6l6,0l0,-6l-6,0m7,0l0,6l6,0l0,-6l-6,0m7,0l0,6l6,0l0,-6l-6,0m7,0l0,6l6,0l0,-6l-6,0m7,0l0,6l6,0l0,-6l-6,0m7,0l0,6l6,0l0,-6l-6,0m7,0l0,6l6,0l0,-6l-6,0m-273,7l0,6l6,0l0,-6l-6,0m7,0l0,6l6,0l0,-6l-6,0m7,0l0,6l6,0l0,-6l-6,0m7,0l0,6l6,0l0,-6l-6,0m7,0l0,6l6,0l0,-6l-6,0m7,0l0,6l6,0l0,-6l-6,0m7,0l0,6l6,0l0,-6l-6,0m7,0l0,6l6,0l0,-6l-6,0m7,0l0,6l6,0l0,-6l-6,0m7,0l0,6l6,0l0,-6l-6,0m7,0l0,6l6,0l0,-6l-6,0m7,0l0,6l6,0l0,-6l-6,0m7,0l0,6l6,0l0,-6l-6,0m7,0l0,6l6,0l0,-6l-6,0m7,0l0,6l6,0l0,-6l-6,0m7,0l0,6l6,0l0,-6l-6,0m7,0l0,6l6,0l0,-6l-6,0m49,0l0,6l6,0l0,-6l-6,0m7,0l0,6l6,0l0,-6l-6,0m7,0l0,6l6,0l0,-6l-6,0m7,0l0,6l6,0l0,-6l-6,0m7,0l0,6l6,0l0,-6l-6,0m7,0l0,6l6,0l0,-6l-6,0m7,0l0,6l6,0l0,-6l-6,0m7,0l0,6l6,0l0,-6l-6,0m7,0l0,6l6,0l0,-6l-6,0m7,0l0,6l6,0l0,-6l-6,0m7,0l0,6l6,0l0,-6l-6,0m7,0l0,6l6,0l0,-6l-6,0m7,0l0,6l6,0l0,-6l-6,0m7,0l0,6l6,0l0,-6l-6,0m7,0l0,6l6,0l0,-6l-6,0m7,0l0,6l6,0l0,-6l-6,0m7,0l0,6l6,0l0,-6l-6,0m-273,7l0,6l6,0l0,-6l-6,0m7,0l0,6l6,0l0,-6l-6,0m7,0l0,6l6,0l0,-6l-6,0m7,0l0,6l6,0l0,-6l-6,0m7,0l0,6l6,0l0,-6l-6,0m7,0l0,6l6,0l0,-6l-6,0m7,0l0,6l6,0l0,-6l-6,0m7,0l0,6l6,0l0,-6l-6,0m7,0l0,6l6,0l0,-6l-6,0m7,0l0,6l6,0l0,-6l-6,0m7,0l0,6l6,0l0,-6l-6,0m7,0l0,6l6,0l0,-6l-6,0m7,0l0,6l6,0l0,-6l-6,0m7,0l0,6l6,0l0,-6l-6,0m7,0l0,6l6,0l0,-6l-6,0m7,0l0,6l6,0l0,-6l-6,0m7,0l0,6l6,0l0,-6l-6,0m49,0l0,6l6,0l0,-6l-6,0m7,0l0,6l6,0l0,-6l-6,0m7,0l0,6l6,0l0,-6l-6,0m7,0l0,6l6,0l0,-6l-6,0m7,0l0,6l6,0l0,-6l-6,0m7,0l0,6l6,0l0,-6l-6,0m7,0l0,6l6,0l0,-6l-6,0m7,0l0,6l6,0l0,-6l-6,0m7,0l0,6l6,0l0,-6l-6,0m7,0l0,6l6,0l0,-6l-6,0m7,0l0,6l6,0l0,-6l-6,0m7,0l0,6l6,0l0,-6l-6,0m7,0l0,6l6,0l0,-6l-6,0m7,0l0,6l6,0l0,-6l-6,0m7,0l0,6l6,0l0,-6l-6,0m7,0l0,6l6,0l0,-6l-6,0m7,0l0,6l6,0l0,-6l-6,0m7,0l0,6l6,0l0,-6l-6,0m-287,7l0,6l6,0l0,-6l-6,0m7,0l0,6l6,0l0,-6l-6,0m7,0l0,6l6,0l0,-6l-6,0m7,0l0,6l6,0l0,-6l-6,0m7,0l0,6l6,0l0,-6l-6,0m7,0l0,6l6,0l0,-6l-6,0m7,0l0,6l6,0l0,-6l-6,0m7,0l0,6l6,0l0,-6l-6,0m7,0l0,6l6,0l0,-6l-6,0m7,0l0,6l6,0l0,-6l-6,0m7,0l0,6l6,0l0,-6l-6,0m7,0l0,6l6,0l0,-6l-6,0m7,0l0,6l6,0l0,-6l-6,0m7,0l0,6l6,0l0,-6l-6,0m7,0l0,6l6,0l0,-6l-6,0m7,0l0,6l6,0l0,-6l-6,0m7,0l0,6l6,0l0,-6l-6,0m7,0l0,6l6,0l0,-6l-6,0m56,0l0,6l6,0l0,-6l-6,0m7,0l0,6l6,0l0,-6l-6,0m7,0l0,6l6,0l0,-6l-6,0m7,0l0,6l6,0l0,-6l-6,0m7,0l0,6l6,0l0,-6l-6,0m7,0l0,6l6,0l0,-6l-6,0m7,0l0,6l6,0l0,-6l-6,0m7,0l0,6l6,0l0,-6l-6,0m7,0l0,6l6,0l0,-6l-6,0m7,0l0,6l6,0l0,-6l-6,0m7,0l0,6l6,0l0,-6l-6,0m7,0l0,6l6,0l0,-6l-6,0m7,0l0,6l6,0l0,-6l-6,0m7,0l0,6l6,0l0,-6l-6,0m7,0l0,6l6,0l0,-6l-6,0m7,0l0,6l6,0l0,-6l-6,0m-280,7l0,6l6,0l0,-6l-6,0m7,0l0,6l6,0l0,-6l-6,0m7,0l0,6l6,0l0,-6l-6,0m7,0l0,6l6,0l0,-6l-6,0m7,0l0,6l6,0l0,-6l-6,0m7,0l0,6l6,0l0,-6l-6,0m7,0l0,6l6,0l0,-6l-6,0m7,0l0,6l6,0l0,-6l-6,0m7,0l0,6l6,0l0,-6l-6,0m7,0l0,6l6,0l0,-6l-6,0m7,0l0,6l6,0l0,-6l-6,0m7,0l0,6l6,0l0,-6l-6,0m7,0l0,6l6,0l0,-6l-6,0m7,0l0,6l6,0l0,-6l-6,0m7,0l0,6l6,0l0,-6l-6,0m7,0l0,6l6,0l0,-6l-6,0m7,0l0,6l6,0l0,-6l-6,0m7,0l0,6l6,0l0,-6l-6,0m56,0l0,6l6,0l0,-6l-6,0m7,0l0,6l6,0l0,-6l-6,0m7,0l0,6l6,0l0,-6l-6,0m7,0l0,6l6,0l0,-6l-6,0m7,0l0,6l6,0l0,-6l-6,0m7,0l0,6l6,0l0,-6l-6,0m7,0l0,6l6,0l0,-6l-6,0m7,0l0,6l6,0l0,-6l-6,0m7,0l0,6l6,0l0,-6l-6,0m7,0l0,6l6,0l0,-6l-6,0m7,0l0,6l6,0l0,-6l-6,0m7,0l0,6l6,0l0,-6l-6,0m7,0l0,6l6,0l0,-6l-6,0m7,0l0,6l6,0l0,-6l-6,0m7,0l0,6l6,0l0,-6l-6,0m7,0l0,6l6,0l0,-6l-6,0m7,0l0,6l6,0l0,-6l-6,0m-287,7l0,6l6,0l0,-6l-6,0m7,0l0,6l6,0l0,-6l-6,0m7,0l0,6l6,0l0,-6l-6,0m7,0l0,6l6,0l0,-6l-6,0m7,0l0,6l6,0l0,-6l-6,0m7,0l0,6l6,0l0,-6l-6,0m7,0l0,6l6,0l0,-6l-6,0m7,0l0,6l6,0l0,-6l-6,0m7,0l0,6l6,0l0,-6l-6,0m7,0l0,6l6,0l0,-6l-6,0m7,0l0,6l6,0l0,-6l-6,0m7,0l0,6l6,0l0,-6l-6,0m7,0l0,6l6,0l0,-6l-6,0m7,0l0,6l6,0l0,-6l-6,0m7,0l0,6l6,0l0,-6l-6,0m7,0l0,6l6,0l0,-6l-6,0m7,0l0,6l6,0l0,-6l-6,0m7,0l0,6l6,0l0,-6l-6,0m63,0l0,6l6,0l0,-6l-6,0m7,0l0,6l6,0l0,-6l-6,0m7,0l0,6l6,0l0,-6l-6,0m7,0l0,6l6,0l0,-6l-6,0m7,0l0,6l6,0l0,-6l-6,0m7,0l0,6l6,0l0,-6l-6,0m7,0l0,6l6,0l0,-6l-6,0m7,0l0,6l6,0l0,-6l-6,0m7,0l0,6l6,0l0,-6l-6,0m7,0l0,6l6,0l0,-6l-6,0m7,0l0,6l6,0l0,-6l-6,0m7,0l0,6l6,0l0,-6l-6,0m7,0l0,6l6,0l0,-6l-6,0m7,0l0,6l6,0l0,-6l-6,0m7,0l0,6l6,0l0,-6l-6,0m7,0l0,6l6,0l0,-6l-6,0m-287,7l0,6l6,0l0,-6l-6,0m7,0l0,6l6,0l0,-6l-6,0m7,0l0,6l6,0l0,-6l-6,0m7,0l0,6l6,0l0,-6l-6,0m7,0l0,6l6,0l0,-6l-6,0m7,0l0,6l6,0l0,-6l-6,0m7,0l0,6l6,0l0,-6l-6,0m7,0l0,6l6,0l0,-6l-6,0m7,0l0,6l6,0l0,-6l-6,0m7,0l0,6l6,0l0,-6l-6,0m7,0l0,6l6,0l0,-6l-6,0m7,0l0,6l6,0l0,-6l-6,0m7,0l0,6l6,0l0,-6l-6,0m7,0l0,6l6,0l0,-6l-6,0m7,0l0,6l6,0l0,-6l-6,0m7,0l0,6l6,0l0,-6l-6,0m7,0l0,6l6,0l0,-6l-6,0m70,0l0,6l6,0l0,-6l-6,0m7,0l0,6l6,0l0,-6l-6,0m7,0l0,6l6,0l0,-6l-6,0m7,0l0,6l6,0l0,-6l-6,0m7,0l0,6l6,0l0,-6l-6,0m7,0l0,6l6,0l0,-6l-6,0m7,0l0,6l6,0l0,-6l-6,0m7,0l0,6l6,0l0,-6l-6,0m7,0l0,6l6,0l0,-6l-6,0m7,0l0,6l6,0l0,-6l-6,0m7,0l0,6l6,0l0,-6l-6,0m7,0l0,6l6,0l0,-6l-6,0m7,0l0,6l6,0l0,-6l-6,0m7,0l0,6l6,0l0,-6l-6,0m7,0l0,6l6,0l0,-6l-6,0m7,0l0,6l6,0l0,-6l-6,0m-287,7l0,6l6,0l0,-6l-6,0m7,0l0,6l6,0l0,-6l-6,0m7,0l0,6l6,0l0,-6l-6,0m7,0l0,6l6,0l0,-6l-6,0m7,0l0,6l6,0l0,-6l-6,0m7,0l0,6l6,0l0,-6l-6,0m7,0l0,6l6,0l0,-6l-6,0m7,0l0,6l6,0l0,-6l-6,0m7,0l0,6l6,0l0,-6l-6,0m7,0l0,6l6,0l0,-6l-6,0m7,0l0,6l6,0l0,-6l-6,0m7,0l0,6l6,0l0,-6l-6,0m7,0l0,6l6,0l0,-6l-6,0m7,0l0,6l6,0l0,-6l-6,0m7,0l0,6l6,0l0,-6l-6,0m7,0l0,6l6,0l0,-6l-6,0m7,0l0,6l6,0l0,-6l-6,0m70,0l0,6l6,0l0,-6l-6,0m7,0l0,6l6,0l0,-6l-6,0m7,0l0,6l6,0l0,-6l-6,0m7,0l0,6l6,0l0,-6l-6,0m7,0l0,6l6,0l0,-6l-6,0m7,0l0,6l6,0l0,-6l-6,0m7,0l0,6l6,0l0,-6l-6,0m7,0l0,6l6,0l0,-6l-6,0m7,0l0,6l6,0l0,-6l-6,0m7,0l0,6l6,0l0,-6l-6,0m7,0l0,6l6,0l0,-6l-6,0m7,0l0,6l6,0l0,-6l-6,0m7,0l0,6l6,0l0,-6l-6,0m7,0l0,6l6,0l0,-6l-6,0m7,0l0,6l6,0l0,-6l-6,0m7,0l0,6l6,0l0,-6l-6,0m-280,7l0,6l6,0l0,-6l-6,0m7,0l0,6l6,0l0,-6l-6,0m7,0l0,6l6,0l0,-6l-6,0m7,0l0,6l6,0l0,-6l-6,0m7,0l0,6l6,0l0,-6l-6,0m7,0l0,6l6,0l0,-6l-6,0m7,0l0,6l6,0l0,-6l-6,0m7,0l0,6l6,0l0,-6l-6,0m7,0l0,6l6,0l0,-6l-6,0m7,0l0,6l6,0l0,-6l-6,0m7,0l0,6l6,0l0,-6l-6,0m7,0l0,6l6,0l0,-6l-6,0m7,0l0,6l6,0l0,-6l-6,0m7,0l0,6l6,0l0,-6l-6,0m7,0l0,6l6,0l0,-6l-6,0m7,0l0,6l6,0l0,-6l-6,0m84,0l0,6l6,0l0,-6l-6,0m7,0l0,6l6,0l0,-6l-6,0m7,0l0,6l6,0l0,-6l-6,0m7,0l0,6l6,0l0,-6l-6,0m7,0l0,6l6,0l0,-6l-6,0m7,0l0,6l6,0l0,-6l-6,0m7,0l0,6l6,0l0,-6l-6,0m7,0l0,6l6,0l0,-6l-6,0m7,0l0,6l6,0l0,-6l-6,0m7,0l0,6l6,0l0,-6l-6,0m7,0l0,6l6,0l0,-6l-6,0m7,0l0,6l6,0l0,-6l-6,0m7,0l0,6l6,0l0,-6l-6,0m7,0l0,6l6,0l0,-6l-6,0m-287,7l0,6l6,0l0,-6l-6,0m21,0l0,6l6,0l0,-6l-6,0m7,0l0,6l6,0l0,-6l-6,0m7,0l0,6l6,0l0,-6l-6,0m7,0l0,6l6,0l0,-6l-6,0m7,0l0,6l6,0l0,-6l-6,0m7,0l0,6l6,0l0,-6l-6,0m7,0l0,6l6,0l0,-6l-6,0m7,0l0,6l6,0l0,-6l-6,0m7,0l0,6l6,0l0,-6l-6,0m7,0l0,6l6,0l0,-6l-6,0m7,0l0,6l6,0l0,-6l-6,0m14,0l0,6l6,0l0,-6l-6,0m91,0l0,6l6,0l0,-6l-6,0m28,0l0,6l6,0l0,-6l-6,0m7,0l0,6l6,0l0,-6l-6,0m7,0l0,6l6,0l0,-6l-6,0m7,0l0,6l6,0l0,-6l-6,0m7,0l0,6l6,0l0,-6l-6,0m7,0l0,6l6,0l0,-6l-6,0m7,0l0,6l6,0l0,-6l-6,0m7,0l0,6l6,0l0,-6l-6,0m7,0l0,6l6,0l0,-6l-6,0m7,0l0,6l6,0l0,-6l-6,0m-273,7l0,6l6,0l0,-6l-6,0m7,0l0,6l6,0l0,-6l-6,0m7,0l0,6l6,0l0,-6l-6,0m7,0l0,6l6,0l0,-6l-6,0m7,0l0,6l6,0l0,-6l-6,0m7,0l0,6l6,0l0,-6l-6,0m7,0l0,6l6,0l0,-6l-6,0m7,0l0,6l6,0l0,-6l-6,0m7,0l0,6l6,0l0,-6l-6,0m7,0l0,6l6,0l0,-6l-6,0m7,0l0,6l6,0l0,-6l-6,0m154,0l0,6l6,0l0,-6l-6,0m7,0l0,6l6,0l0,-6l-6,0m7,0l0,6l6,0l0,-6l-6,0m7,0l0,6l6,0l0,-6l-6,0m7,0l0,6l6,0l0,-6l-6,0m7,0l0,6l6,0l0,-6l-6,0m7,0l0,6l6,0l0,-6l-6,0m-259,7l0,6l6,0l0,-6l-6,0m7,0l0,6l6,0l0,-6l-6,0m7,0l0,6l6,0l0,-6l-6,0m7,0l0,6l6,0l0,-6l-6,0m14,0l0,6l6,0l0,-6l-6,0m7,0l0,6l6,0l0,-6l-6,0m7,0l0,6l6,0l0,-6l-6,0m7,0l0,6l6,0l0,-6l-6,0m7,0l0,6l6,0l0,-6l-6,0m7,0l0,6l6,0l0,-6l-6,0m126,0l0,6l6,0l0,-6l-6,0m35,0l0,6l6,0l0,-6l-6,0m14,0l0,6l6,0l0,-6l-6,0m7,0l0,6l6,0l0,-6l-6,0m14,0l0,6l6,0l0,-6l-6,0m-259,7l0,6l6,0l0,-6l-6,0m28,0l0,6l6,0l0,-6l-6,0m7,0l0,6l6,0l0,-6l-6,0m7,0l0,6l6,0l0,-6l-6,0m7,0l0,6l6,0l0,-6l-6,0m-21,7l0,6l6,0l0,-6l-6,0m7,0l0,6l6,0l0,-6l-6,0m14,0l0,6l6,0l0,-6l-6,0m-14,7l0,6l6,0l0,-6l-6,0z"/>
 </g>
</svg>