<?xml version="1.0" encoding="UTF-8" standalone="no"?>
<svg
   xmlns:dc="http://purl.org/dc/elements/1.1/"
   xmlns:cc="http://creativecommons.org/ns#"
   xmlns:rdf="http://www.w3.org/1999/02/22-rdf-syntax-ns#"
   xmlns:svg="http://www.w3.org/2000/svg"
   xmlns="http://www.w3.org/2000/svg"
   xmlns:sodipodi="http://sodipodi.sourceforge.net/DTD/sodipodi-0.dtd"
   xmlns:inkscape="http://www.inkscape.org/namespaces/inkscape"
   version="1.1"
   overflow="visible"
   viewBox="0 0 59.053783 50.724205"
   x="0px"
   y="0px"
   id="svg2"
   inkscape:version="0.91 r13725"
   sodipodi:docname="Kidneys_noun_524431_cc.svg"
   width="100"
   height="105"
   style="overflow:visible;fill-rule:evenodd;stroke-width:0.50099999;stroke-linejoin:bevel">
  <metadata
     id="metadata20">
    <rdf:RDF>
      <cc:Work
         rdf:about="">
        <dc:format>image/svg+xml</dc:format>
        <dc:type
           rdf:resource="http://purl.org/dc/dcmitype/StillImage" />
        <dc:title></dc:title>
      </cc:Work>
    </rdf:RDF>
  </metadata>
  <defs
     id="defs18" />
  <sodipodi:namedview
     pagecolor="#ffffff"
     bordercolor="#666666"
     borderopacity="1"
     objecttolerance="10"
     gridtolerance="10"
     guidetolerance="10"
     inkscape:pageopacity="0"
     inkscape:pageshadow="2"
     inkscape:window-width="654"
     inkscape:window-height="480"
     id="namedview16"
     showgrid="false"
     fit-margin-top="0"
     fit-margin-left="0"
     fit-margin-right="0"
     fit-margin-bottom="0"
     inkscape:zoom="2.5173333"
     inkscape:cx="48.94129"
     inkscape:cy="15.987"
     inkscape:window-x="1571"
     inkscape:window-y="329"
     inkscape:window-maximized="0"
     inkscape:current-layer="svg2" />
  <g
     font-size="16"
     transform="matrix(1,0,0,-1,-7.9731085,-12.137797)"
     id="g4"
     style="font-size:16px;font-family:'Times New Roman';fill:none;stroke:#000000">
    <g
       transform="translate(0,-75)"
       id="g6">
      <g
         id="g8">
        <path
           d="m 31.695,12.138 0,28.638 c 0.274,3.256 -0.716,5.258 -2.142,6.816 0.815,-2.824 0.021,-5.119 -2.146,-6.94 3.295,-8.356 -2.454,-13.276 -7.821,-15.015 -3.758,-1.215 -9.302,1.571 -10.599,5.301 -3.862,11.085 3.784,32.172 14.886,31.922 5.07,-0.112 10.715,-3.84 7.319,-9.466 1.717,-1.914 3.519,-4.67 3.534,-7.946 l 0,-33.185 -3.031,-0.125 z m 11.607,0 -3.028,0.125 0,33.185 c 0.015,3.276 1.816,6.032 3.534,7.946 -3.396,5.626 2.249,9.354 7.319,9.466 11.102,0.25 18.748,-20.837 14.886,-31.922 -1.298,-3.73 -6.841,-6.516 -10.599,-5.301 -5.367,1.739 -11.116,6.659 -7.821,15.015 -2.168,1.821 -2.961,4.116 -2.147,6.94 -1.427,-1.558 -2.415,-3.56 -2.144,-6.816 l 0,-28.638 z"
           stroke-miterlimit="79.8403193612775"
           id="path10"
           inkscape:connector-curvature="0"
           style="fill:#ffffff;stroke:none;stroke-width:2.51900005;stroke-linecap:round;stroke-linejoin:round;stroke-miterlimit:79.84031677;marker-start:none;marker-end:none" />
      </g>
    </g>
  </g>
</svg>
