<?xml version="1.0" encoding="UTF-8" standalone="no"?>
<svg
   xmlns:dc="http://purl.org/dc/elements/1.1/"
   xmlns:cc="http://creativecommons.org/ns#"
   xmlns:rdf="http://www.w3.org/1999/02/22-rdf-syntax-ns#"
   xmlns:svg="http://www.w3.org/2000/svg"
   xmlns="http://www.w3.org/2000/svg"
   xmlns:sodipodi="http://sodipodi.sourceforge.net/DTD/sodipodi-0.dtd"
   xmlns:inkscape="http://www.inkscape.org/namespaces/inkscape"
   version="1.1"
   x="0px"
   y="0px"
   viewBox="0 0 89.999672 60.591278"
   enable-background="new 0 0 100 100"
   xml:space="preserve"
   id="svg2"
   inkscape:version="0.91 r13725"
   sodipodi:docname="Liver_noun_28826_cc.svg"
   width="89.999672"
   height="60.591278"><metadata
     id="metadata16"><rdf:RDF><cc:Work
         rdf:about=""><dc:format>image/svg+xml</dc:format><dc:type
           rdf:resource="http://purl.org/dc/dcmitype/StillImage" /><dc:title></dc:title></cc:Work></rdf:RDF></metadata><defs
     id="defs14" /><sodipodi:namedview
     pagecolor="#ffffff"
     bordercolor="#666666"
     borderopacity="1"
     objecttolerance="10"
     gridtolerance="10"
     guidetolerance="10"
     inkscape:pageopacity="0"
     inkscape:pageshadow="2"
     inkscape:window-width="654"
     inkscape:window-height="480"
     id="namedview12"
     showgrid="false"
     fit-margin-top="0"
     fit-margin-left="0"
     fit-margin-right="0"
     fit-margin-bottom="0"
     inkscape:zoom="1.888"
     inkscape:cx="61.646492"
     inkscape:cy="18.959363"
     inkscape:window-x="1529"
     inkscape:window-y="269"
     inkscape:window-maximized="0"
     inkscape:current-layer="svg2" /><g
     id="g4"
     transform="translate(-4.773,-20.868086)"><path
       d="m 58.355,24.95 c 0,0 -1.507,2.912 -1.83,7.202 -0.263,3.507 0.686,11.987 1.338,14.719 0.776,3.244 2.289,4.015 5.194,4.081 2.904,0.064 9.256,-3.611 10.933,-4.511 1.539,-0.824 9.579,-5.862 18.858,-15.958 0.565,-0.615 3.947,-5.196 0.141,-6.338 C 90.588,23.424 64.503,21.918 61.592,22.117 58.68,22.316 46.391,21.893 44.199,21.551 42.527,21.291 29.161,19.008 17.938,24.569 6.715,30.128 4.773,37.822 4.773,45.939 c 0,6.012 2.826,9.781 5.405,18.088 2.386,7.685 4.956,13.356 5.994,15.462 0.351,0.71 2.582,2.7 4.718,1.69 2.137,-1.009 15.874,-17.219 20.704,-20.546 4.832,-3.325 14.231,-5.497 14.323,-9.52 0.091,-4.022 -0.587,-20.948 -2.675,-22.053 -2.088,-1.105 -0.901,-3.289 -0.451,-3.445 1.747,-0.606 5.901,-1.129 5.564,-0.665 z"
       id="path6"
       inkscape:connector-curvature="0"
       style="fill:#ffffff" /></g></svg>
