<?xml version="1.0" encoding="UTF-8"?>
<!DOCTYPE svg PUBLIC "-//W3C//DTD SVG 1.1//EN" "http://www.w3.org/Graphics/SVG/1.1/DTD/svg11.dtd">
<!-- Creator: CorelDRAW 2017 -->
<svg xmlns="http://www.w3.org/2000/svg" xml:space="preserve" width="7.3787in" height="8.96056in" version="1.1" style="shape-rendering:geometricPrecision; text-rendering:geometricPrecision; image-rendering:optimizeQuality; fill-rule:evenodd; clip-rule:evenodd"
viewBox="0 0 7493.65 9100.16"
 xmlns:xlink="http://www.w3.org/1999/xlink">
 <defs>
  <style type="text/css">
   <![CDATA[
    .fil0 {fill:#FEFEFE}
   ]]>
  </style>
 </defs>
 <g id="Layer_x0020_1">
  <metadata id="CorelCorpID_0Corel-Layer"/>
  <g id="_821072880">
   <path class="fil0" d="M3265.66 1434.62l0 2414.96c0,292.47 -166.31,361.1 -303.57,517.05l-197.52 212.77c-200.68,217.07 -180.67,255 -582.2,54.13 -115.07,-57.57 -213.82,-101.87 -331.25,-157.89 -66.23,-31.6 -99.17,-39.49 -160.11,-76.57 -170.34,-103.62 -124.48,-67.61 -275.6,-197.78 -228.46,-196.78 -567.06,-4.51 -76.96,250.62 97.63,50.83 931.56,465.35 870.22,613.05 -8.73,21.03 -2.1,36.16 -71.87,54.36 -43.97,11.47 -83.01,12.5 -119.65,22.35 -228.58,61.44 -629.42,232.96 -816.91,382.27l-25.69 21.66c-2.49,2.11 -5.92,5.26 -8.41,7.36 -110.86,93.71 -269.46,203.72 -314.21,395.91 132.23,197.57 153.36,-2.55 365.74,-139.16 188.98,-121.56 650.86,-311.79 888.6,-389.46 71.4,-23.33 141.92,-38.86 212.83,-55.39 -53,79.19 -96.41,279.1 -108.13,381.12 -17.27,150.29 -33.85,296.67 -33.85,455.44 0,39 60.85,31.57 94.66,31.57 143.88,0 22.21,-331.2 196.16,-592.94l156.1 -238.43c222.07,-356.2 90.53,-155.3 361.6,-427.42l402.3 -386.7c315.69,-315.85 242.68,-173.71 693.83,260.76 306.33,294.99 390.44,260.52 612.93,665.27 90.47,164.6 177.84,403.78 337.9,403.78 71.38,0 78.88,-86.72 78.88,-142.06 0,-128.26 -141.99,-159.04 -141.99,-378.82 295.71,0 237.08,51.72 560.92,101.73 146.27,22.59 622.29,143.98 622.29,-54.37 0,-168.3 -572.59,-222.62 -705.61,-241.08l-477.6 -90.39c0,-128.93 57.02,-93.77 232.95,-240.45 131.97,-110.03 83.48,-39.26 268.21,-236.74 101.82,-108.84 228.14,-280.44 -12.1,-280.44 -103.59,0 -131.46,103.41 -255.46,186.36 -519.27,347.37 -401.11,412.79 -821.58,-24.26l-264.02 -288.28c-200.36,-205.75 -173.44,-321.55 -173.44,-599.89l-0.02 -1467.93c-0.39,-171.86 15.8,-304.88 15.79,-489.29 0,-218.87 24.96,-1291.89 -30.6,-1453.08 -96.17,-279.04 -449.77,-273.01 -603.62,-81.15 -78.5,97.89 -75.92,212.93 -75.71,381.99 0.38,313.29 15.78,591.02 15.78,915.48z"/>
   <path class="fil0" d="M4180.67 3328.7c0,179.39 65.95,444.84 220.86,457.74 0,-110.19 15.25,-158.31 16.41,-251.92 3.31,-268.01 -81.99,-1035.75 313.19,-1024.42 29.04,0.84 193.87,34.57 224.85,42.89 163.22,43.85 318.25,135.37 454.61,223.88 305.76,198.46 676.72,582.77 902.37,864.99 130.37,163.05 327.16,479.43 415.58,657.53 33.13,66.73 58.49,114.47 89.53,178.75 97.42,201.74 235.19,591.47 285.37,803.58l76.69 317.87c46.47,176.86 63.29,429.06 87.8,606.66 23.95,173.51 36.4,616.58 36.4,800.14 0,394.98 -29.15,751.82 -100.82,1082.92 -28.13,129.95 -69.88,335.39 -125.01,458.94 -91.68,205.41 -200.2,441.7 -447.97,252.94 -69.54,-52.98 -145.08,-138.01 -262.01,-211.38l-285.49 -187.88c-360.25,-218.11 -838.51,-379.35 -1116.71,-555.84 -25.45,-16.15 -38.9,-26.83 -67.92,-42.53 -123.7,-66.94 -247.76,-151.29 -318.82,-280.82 -111.57,-203.37 -12.91,-546.64 -4.6,-737.41 16.63,-381.72 66.45,-855.26 -140.52,-1216.67 -33.89,-59.2 -75.95,-133.75 -159.14,-140.67 0,415.03 63.95,418.47 92.35,696.8 5.66,55.46 8.9,107.32 13.58,144.25 29.14,230.06 23.72,487.19 -15.44,717.4 -8.74,51.39 -23.39,56.89 -27.31,130.55 -22.84,429.18 65.24,586.09 394.38,820.6 352.31,251.02 1117.77,471.9 1535.27,815.78 31.77,26.17 60.5,45.57 89.92,67.87 37.15,28.16 47.6,44.54 83.07,74.73 153.47,130.64 342.99,226.34 534.69,117.77 257.69,-145.95 430.27,-803.5 453.62,-1061.41 59.68,-659.31 64.2,-532.35 64.2,-1277.41l-52.22 -594.9c-7.66,-51.77 -13.71,-140.79 -25.19,-195.77l-64.32 -377.61c-41.56,-249.76 -131.17,-532.57 -216.49,-762 -13.57,-36.48 -15.39,-45.88 -29.16,-81.31 -174.42,-448.97 -427.65,-868.48 -730.25,-1242.39 -147.47,-182.23 -480.92,-519.64 -662.42,-663.11 -222.79,-176.1 -636.28,-423.51 -901.89,-423.51 -172.42,0 -266.78,-21.65 -406.64,129.81 -167.36,181.23 -224.4,603.99 -224.4,864.59z"/>
   <path class="fil0" d="M0 6627.56l15.47 442.26c4.25,178 34.37,365.34 47.98,536.01 5.63,70.54 20.31,115.67 28.65,176.52l63.64 346.72c53.88,201.94 109.06,405.25 196.32,592.79 238.26,512.1 554.62,461.45 913.68,103.34 200.19,-199.66 537.17,-384.68 795.67,-514 225.67,-112.89 463.9,-225.89 672.37,-369.04 184.57,-126.74 453,-350.01 453,-604.31l-22.74 -324.5c-51.98,-284.61 -71.92,-501.58 -71.92,-796.17 0,-129.24 51.17,-246.45 62.01,-364.12 10.54,-114.39 10,-312.06 32.64,-409.29 -442.13,-103.06 -267.05,627.29 -286.42,850.18 -14.87,171.13 17.66,407.87 47.66,588.28 45.01,270.64 113.79,493.94 -96.18,720.31 -264.87,285.54 -981.42,556.53 -1346.05,799.9l-219.53 159.17c-300.93,246.64 -522.18,625.01 -770.21,43.53 -30.65,-71.84 -57.03,-126.28 -82.63,-201.44 -98.16,-288.19 -181,-682.81 -197.24,-986.46 -4.51,-84.16 -26.72,-185.27 -31.16,-268.72 -29.47,-552.66 -23.66,-1116.81 82.97,-1653.39 62.99,-316.93 136.36,-616.32 259.65,-924.03 144.85,-361.5 331.87,-727.39 574.75,-1034.93l565.22 -618.29c210.76,-192.36 890.29,-710.44 1099.89,-310.36 127.06,242.52 124.11,533.82 130.22,800.97 2.42,105.59 25.57,74.61 32.42,156.98 145.94,0 157.76,-82.75 157.76,-205.2 0,-300.32 -43.64,-892.61 -331.95,-1041.09 -284.86,-146.7 -644.3,52.82 -877.96,193.61 -48.82,29.41 -73.85,50.32 -121.85,83.28 -274.8,188.74 -630.02,594.55 -836.17,868.08l-475.9 818.15 -125.17 300.94c-58.3,163.76 -121.47,332.12 -161.23,501.62 -99.92,426.02 -113.74,699.97 -159.57,1118.86 -15.1,138 -18.1,279.7 -18.1,423.84z"/>
  </g>
 </g>
</svg>
