<svg width="90" height="90" viewBox="0 0 90 90" fill="none" xmlns="http://www.w3.org/2000/svg">
<path d="M40 40H60V20H40V0H20V20H0V40H20V60H40V40Z" transform="translate(15 15)" fill="#4FC3F7"/>
<g style="mix-blend-mode:multiply" opacity="0.3">
<mask id="mask0" mask-type="alpha" maskUnits="userSpaceOnUse" x="15" y="15" width="61" height="60">
<path d="M40 40H60V20H40V0H20V20H0V40H20V60H40V40Z" transform="translate(15 15)" fill="#C4C4C4"/>
</mask>
<g mask="url(#mask0)">
<path d="M9.37476 11.2497L4.68738 0L0 11.2497L4.68738 22.4994L9.37476 11.2497Z" transform="translate(12.1445 -2.12173)" fill="#29B6F6"/>
<path d="M9.37476 11.2497L4.68738 0L0 11.2497L4.68738 22.4994L9.37476 11.2497Z" transform="translate(21.5193 -2.12173)" fill="#03A9F4"/>
<path d="M9.37476 11.2497L4.68738 0L0 11.2497L4.68738 22.4994L9.37476 11.2497Z" transform="translate(30.894 -2.12173)" fill="#29B6F6"/>
<path d="M9.37476 11.2497L4.68738 0L0 11.2497L4.68738 22.4994L9.37476 11.2497Z" transform="translate(40.2689 -2.12173)" fill="#03A9F4"/>
<path d="M9.37476 11.2497L4.68738 0L0 11.2497L4.68738 22.4994L9.37476 11.2497Z" transform="translate(49.6436 -2.12173)" fill="#29B6F6"/>
<path d="M9.37476 11.2497L4.68738 0L0 11.2497L4.68738 22.4994L9.37476 11.2497Z" transform="translate(59.0183 -2.12173)" fill="#4FC3F7"/>
<path d="M9.37476 11.2497L4.68738 0L0 11.2497L4.68738 22.4994L9.37476 11.2497Z" transform="translate(68.3931 -2.12173)" fill="#81D4FA"/>
<path d="M9.37476 11.2497L4.68738 0L0 11.2497L4.68738 22.4994L9.37476 11.2497Z" transform="translate(7.45715 9.12796)" fill="#03A9F4"/>
<path d="M9.37476 11.2497L4.68738 0L0 11.2497L4.68738 22.4994L9.37476 11.2497Z" transform="translate(16.8319 9.12796)" fill="#4FC3F7"/>
<path d="M9.37476 11.2497L4.68738 0L0 11.2497L4.68738 22.4994L9.37476 11.2497Z" transform="translate(26.2067 9.12796)" fill="#81D4FA"/>
<path d="M9.37476 11.2497L4.68738 0L0 11.2497L4.68738 22.4994L9.37476 11.2497Z" transform="translate(35.5814 9.12796)" fill="#03A9F4"/>
<path d="M9.37476 11.2497L4.68738 0L0 11.2497L4.68738 22.4994L9.37476 11.2497Z" transform="translate(44.9562 9.12796)" fill="#81D4FA"/>
<path d="M9.37476 11.2497L4.68738 0L0 11.2497L4.68738 22.4994L9.37476 11.2497Z" transform="translate(54.3309 9.12796)" fill="#81D4FA"/>
<path d="M9.37476 11.2497L4.68738 0L0 11.2497L4.68738 22.4994L9.37476 11.2497Z" transform="translate(63.7057 9.12796)" fill="#29B6F6"/>
<path d="M9.37476 11.2497L4.68738 0L0 11.2497L4.68738 22.4994L9.37476 11.2497Z" transform="translate(73.0804 9.12796)" fill="#4FC3F7"/>
<path d="M9.37476 11.2497L4.68738 0L0 11.2497L4.68738 22.4994L9.37476 11.2497Z" transform="translate(12.1445 20.3777)" fill="#29B6F6"/>
<path d="M9.37476 11.2497L4.68738 0L0 11.2497L4.68738 22.4994L9.37476 11.2497Z" transform="translate(21.5193 20.3777)" fill="#81D4FA"/>
<path d="M9.37476 11.2497L4.68738 0L0 11.2497L4.68738 22.4994L9.37476 11.2497Z" transform="translate(30.894 20.3777)" fill="#29B6F6"/>
<path d="M9.37476 11.2497L4.68738 0L0 11.2497L4.68738 22.4994L9.37476 11.2497Z" transform="translate(40.2689 20.3777)" fill="#4FC3F7"/>
<path d="M9.37476 11.2497L4.68738 0L0 11.2497L4.68738 22.4994L9.37476 11.2497Z" transform="translate(26.2286 31.6286)" fill="#4FC3F7"/>
<path d="M9.37476 11.2497L4.68738 0L0 11.2497L4.68738 22.4994L9.37476 11.2497Z" transform="translate(49.6436 20.3777)" fill="#29B6F6"/>
<path d="M9.37476 11.2497L4.68738 0L0 11.2497L4.68738 22.4994L9.37476 11.2497Z" transform="translate(59.0183 20.3777)" fill="#4FC3F7"/>
<path d="M9.37476 11.2497L4.68738 0L0 11.2497L4.68738 22.4994L9.37476 11.2497Z" transform="translate(68.3931 20.3777)" fill="#81D4FA"/>
<path d="M9.37476 11.2497L4.68738 0L0 11.2497L4.68738 22.4994L9.37476 11.2497Z" transform="translate(7.45715 31.6274)" fill="#03A9F4"/>
<path d="M9.37476 11.2497L4.68738 0L0 11.2497L4.68738 22.4994L9.37476 11.2497Z" transform="translate(16.8319 31.6274)" fill="#4FC3F7"/>
<path d="M9.37476 11.2497L4.68738 0L0 11.2497L4.68738 22.4994L9.37476 11.2497Z" transform="translate(35.5814 31.6274)" fill="#81D4FA"/>
<path d="M9.37476 11.2497L4.68738 0L0 11.2497L4.68738 22.4994L9.37476 11.2497Z" transform="translate(44.9562 31.6274)" fill="#03A9F4"/>
<path d="M9.37476 11.2497L4.68738 0L0 11.2497L4.68738 22.4994L9.37476 11.2497Z" transform="translate(54.3309 31.6274)" fill="#81D4FA"/>
<path d="M9.37476 11.2497L4.68738 0L0 11.2497L4.68738 22.4994L9.37476 11.2497Z" transform="translate(63.7057 31.6274)" fill="#29B6F6"/>
<path d="M9.37476 11.2497L4.68738 0L0 11.2497L4.68738 22.4994L9.37476 11.2497Z" transform="translate(73.0804 31.6274)" fill="#4FC3F7"/>
<path d="M9.37476 11.2497L4.68738 0L0 11.2497L4.68738 22.4994L9.37476 11.2497Z" transform="translate(12.1445 42.8771)" fill="#29B6F6"/>
<path d="M9.37476 11.2497L4.68738 0L0 11.2497L4.68738 22.4994L9.37476 11.2497Z" transform="translate(21.5193 42.8771)" fill="#03A9F4"/>
<path d="M9.37476 11.2497L4.68738 0L0 11.2497L4.68738 22.4994L9.37476 11.2497Z" transform="translate(59.0183 42.8771)" fill="#4FC3F7"/>
<path d="M9.37476 11.2497L4.68738 0L0 11.2497L4.68738 22.4994L9.37476 11.2497Z" transform="translate(68.3931 42.8771)" fill="#81D4FA"/>
<path d="M9.37476 11.2497L4.68738 0L0 11.2497L4.68738 22.4994L9.37476 11.2497Z" transform="translate(7.45715 54.1268)" fill="#03A9F4"/>
<path d="M9.37476 11.2497L4.68738 0L0 11.2497L4.68738 22.4994L9.37476 11.2497Z" transform="translate(16.8319 54.1268)" fill="#4FC3F7"/>
<path d="M9.37476 11.2497L4.68738 0L0 11.2497L4.68738 22.4994L9.37476 11.2497Z" transform="translate(63.7057 54.1268)" fill="#29B6F6"/>
<path d="M9.37476 11.2497L4.68738 0L0 11.2497L4.68738 22.4994L9.37476 11.2497Z" transform="translate(12.1445 42.8783)" fill="#29B6F6"/>
<path d="M9.37476 11.2497L4.68738 0L0 11.2497L4.68738 22.4994L9.37476 11.2497Z" transform="translate(21.5193 42.8783)" fill="#03A9F4"/>
<path d="M9.37476 11.2497L4.68738 0L0 11.2497L4.68738 22.4994L9.37476 11.2497Z" transform="translate(30.894 42.8783)" fill="#29B6F6"/>
<path d="M9.37476 11.2497L4.68738 0L0 11.2497L4.68738 22.4994L9.37476 11.2497Z" transform="translate(40.2689 42.8783)" fill="#03A9F4"/>
<path d="M9.37476 11.2497L4.68738 0L0 11.2497L4.68738 22.4994L9.37476 11.2497Z" transform="translate(49.6436 42.8783)" fill="#29B6F6"/>
<path d="M9.37476 11.2497L4.68738 0L0 11.2497L4.68738 22.4994L9.37476 11.2497Z" transform="translate(59.0183 42.8783)" fill="#4FC3F7"/>
<path d="M9.37476 11.2497L4.68738 0L0 11.2497L4.68738 22.4994L9.37476 11.2497Z" transform="translate(68.3931 42.8783)" fill="#81D4FA"/>
<path d="M9.37476 11.2497L4.68738 0L0 11.2497L4.68738 22.4994L9.37476 11.2497Z" transform="translate(7.45715 54.128)" fill="#03A9F4"/>
<path d="M9.37476 11.2497L4.68738 0L0 11.2497L4.68738 22.4994L9.37476 11.2497Z" transform="translate(16.8319 54.128)" fill="#4FC3F7"/>
<path d="M9.37476 11.2497L4.68738 0L0 11.2497L4.68738 22.4994L9.37476 11.2497Z" transform="translate(26.2067 54.128)" fill="#81D4FA"/>
<path d="M9.37476 11.2497L4.68738 0L0 11.2497L4.68738 22.4994L9.37476 11.2497Z" transform="translate(35.5814 54.128)" fill="#03A9F4"/>
<path d="M9.37476 11.2497L4.68738 0L0 11.2497L4.68738 22.4994L9.37476 11.2497Z" transform="translate(44.9562 54.128)" fill="#81D4FA"/>
<path d="M9.37476 11.2497L4.68738 0L0 11.2497L4.68738 22.4994L9.37476 11.2497Z" transform="translate(54.3309 54.128)" fill="#81D4FA"/>
<path d="M9.37476 11.2497L4.68738 0L0 11.2497L4.68738 22.4994L9.37476 11.2497Z" transform="translate(63.7057 54.128)" fill="#29B6F6"/>
<path d="M9.37476 11.2497L4.68738 0L0 11.2497L4.68738 22.4994L9.37476 11.2497Z" transform="translate(73.0804 54.128)" fill="#4FC3F7"/>
<path d="M9.37476 11.2497L4.68738 0L0 11.2497L4.68738 22.4994L9.37476 11.2497Z" transform="translate(12.1445 65.3777)" fill="#29B6F6"/>
<path d="M9.37476 11.2497L4.68738 0L0 11.2497L4.68738 22.4994L9.37476 11.2497Z" transform="translate(21.5193 65.3777)" fill="#81D4FA"/>
<path d="M9.37476 11.2497L4.68738 0L0 11.2497L4.68738 22.4994L9.37476 11.2497Z" transform="translate(30.894 65.3777)" fill="#29B6F6"/>
<path d="M9.37476 11.2497L4.68738 0L0 11.2497L4.68738 22.4994L9.37476 11.2497Z" transform="translate(40.2689 65.3777)" fill="#4FC3F7"/>
<path d="M9.37476 11.2497L4.68738 0L0 11.2497L4.68738 22.4994L9.37476 11.2497Z" transform="translate(49.6436 65.3777)" fill="#29B6F6"/>
<path d="M9.37476 11.2497L4.68738 0L0 11.2497L4.68738 22.4994L9.37476 11.2497Z" transform="translate(59.0183 65.3777)" fill="#4FC3F7"/>
<path d="M9.37476 11.2497L4.68738 0L0 11.2497L4.68738 22.4994L9.37476 11.2497Z" transform="translate(68.3931 65.3777)" fill="#81D4FA"/>
<path d="M9.37476 11.2497L4.68738 0L0 11.2497L4.68738 22.4994L9.37476 11.2497Z" transform="translate(7.45715 31.6286)" fill="#81D4FA"/>
<path d="M9.37476 11.2497L4.68738 0L0 11.2497L4.68738 22.4994L9.37476 11.2497Z" transform="translate(16.8319 31.6286)" fill="#4FC3F7"/>
<path d="M9.37476 11.2497L4.68738 0L0 11.2497L4.68738 22.4994L9.37476 11.2497Z" transform="translate(54.3309 31.6286)" fill="#03A9F4"/>
<path d="M9.37476 11.2497L4.68738 0L0 11.2497L4.68738 22.4994L9.37476 11.2497Z" transform="translate(63.7057 31.6286)" fill="#29B6F6"/>
</g>
</g>
<path d="M80 0H10C4.5 0 0.05 4.5 0.05 10L0 80C0 85.5 4.5 90 10 90H80C85.5 90 90 85.5 90 80V10C90 4.5 85.5 0 80 0ZM75 55H55V75H35V55H15V35H35V15H55V35H75V55Z" fill="white"/>
</svg>
